<svg xmlns="http://www.w3.org/2000/svg" width="512" height="512" viewBox="0 0 512 512">
  <defs>
    <radialGradient id="p" cx="50%" cy="50%" r="60%">
      <stop offset="0" stop-color="#ff7a62" stop-opacity="0.95"/>
      <stop offset="1" stop-color="#ff5a4f" stop-opacity="0.65"/>
    </radialGradient>
  </defs>
  <rect width="512" height="512" fill="transparent"/>
  <g transform="translate(256 256)">
    <g fill="url(#p)">
      <path d="M0,-200 C60,-190 110,-130 90,-70 C70,-15 25,-5 0,-30 C-25,-5 -70,-15 -90,-70 C-110,-130 -60,-190 0,-200Z"/>
      <path d="M173,-100 C210,-50 210,40 150,75 C95,106 55,82 50,45 C20,55 -20,55 -50,45 C-55,82 -95,106 -150,75 C-210,40 -210,-50 -173,-100Z" opacity="0.85"/>
      <path d="M173,100 C210,150 170,220 100,210 C35,200 20,155 40,130 C10,120 -10,120 -40,130 C-20,155 -35,200 -100,210 C-170,220 -210,150 -173,100Z" opacity="0.78"/>
    </g>
    <circle r="44" fill="#ffe08a" opacity="0.95"/>
    <circle r="28" fill="#ffffff" opacity="0.55"/>
  </g>
</svg>

